<svg xmlns="http://www.w3.org/2000/svg" viewBox="0 0 747.98 83.27" width="350px">
	<path
		d="M32.08,51.13c0,6.07-5,10.37-12.87,10.37A16,16,0,0,1,5.67,54.7L8.9,51.41C12,55.1,15.41,57.2,19.27,57.2c4.42,0,8.27-2.78,8.27-6,0-2.16-1.7-3.18-7.31-4.31C10.88,45,7,42.06,7,37c0-5.72,5-9.58,12.52-9.58,5.44,0,9.75,1.87,12.13,5.27l-3.06,3.06c-2.66-2.83-5-3.91-8.56-3.91-4.93,0-8.5,2.1-8.5,5,0,2.6,2.83,4.08,9.07,5.27C28.79,43.71,32.08,46.26,32.08,51.13Z"/>
	<path
		d="M70.5,54c-2.44,5.32-6.81,7.53-11,7.53-5.72,0-11.22-4.3-11.22-11.9V32.71H43.07V28.35h5.21V16.11l4.82.34v11.9H66.87v4.36H53.1V49.6c0,4.82,3.06,7.14,6.34,7.14A7.27,7.27,0,0,0,66.19,52Z"/>
	<path
		d="M78.6,44.16c0-10.31,5.72-16.72,14.84-16.72s15,6.58,15,16.72c0,10.43-6,17.34-15,17.34S78.6,54.7,78.6,44.16Zm24.31,0c0-8.27-3.52-12.81-9.47-12.75-5.72.06-9.18,4.65-9.18,12.75s3.46,13.21,9.18,13.21C99.39,57.37,102.91,52.49,102.91,44.16Z"/>
	<path
		d="M131.3,38.15V56.69h9.57v.22a13.51,13.51,0,0,0,.34,3.74H116.62v-4h10V32.32l-6.63-.4V28.35h11.9a12.28,12.28,0,0,0-.91,3.8c2.27-4.31,7.37-4.71,9.86-4.71,1.25,0,2.5.12,6.18,1.53l-3,4.71C138.49,30.67,132.43,33.28,131.3,38.15Z"/>
	<path
		d="M181.9,28.35c-1.76,7.2-8.28,24.59-13.6,36.89-2.21,6-6.12,8.28-12,7.26l.79-3.74c3.4.68,5.67-1.19,7-4.93l2-4.88h0C162,48.18,155.6,35.77,154.41,28.35h4.76c1,6.06,5.44,15.47,9.3,24.54,3.68-9.64,7.14-19.72,8.05-24.54Z"/>
	<path
		d="M220.72,43.59c0,10.77-5.95,17.86-14.91,17.86a13.64,13.64,0,0,1-8.84-3,6.77,6.77,0,0,0,1,2.21h-6.06V16.11l4.82.34v16a10.8,10.8,0,0,1,9.69-5C215.44,27.44,220.72,33.39,220.72,43.59Zm-4.82,0c0-7.19-3.74-11.9-9.52-11.9-4.08,0-7.6,2.33-9.69,6.41V51.87c1.47,3.46,4.3,5,9.12,5C211.7,56.86,215.9,51.36,215.9,43.59Z"/>
	<path
		d="M228.19,44.16c0-10.31,5.73-16.72,14.85-16.72S258,34,258,44.16c0,10.43-5.95,17.34-15,17.34S228.19,54.7,228.19,44.16Zm24.31,0c0-8.27-3.51-12.81-9.46-12.75-5.72.06-9.18,4.65-9.18,12.75s3.46,13.21,9.18,13.21C249,57.37,252.5,52.49,252.5,44.16Z"/>
	<path
		d="M265.59,44.16c0-10.31,5.72-16.72,14.85-16.72s15,6.58,15,16.72c0,10.43-5.95,17.34-15,17.34S265.59,54.7,265.59,44.16Zm24.31,0c0-8.27-3.51-12.81-9.46-12.75-5.73.06-9.18,4.65-9.18,12.75s3.45,13.21,9.18,13.21C286.39,57.37,289.9,52.49,289.9,44.16Z"/>
	<path d="M326.74,60.65,312,46.37l-1.53,1.36V60.65h-4.82V16.11l4.82.34V41.27l15-12.92,7,.51-16.32,14L334.5,60.65Z"/>
	<path d="M344.24,45.92V41.38H366.4v4.54Z"/>
	<path
		d="M406.24,42.18V60.65h-6.07a8.16,8.16,0,0,0,1.25-4c-1.64,2.83-5.55,4.7-10.09,4.76-7.14,0-12.8-3.18-12.8-9.18,0-6.47,6.51-9.81,19.49-9.81,1.08,0,2.21.06,3.4.11v-.39c0-6.12-4-10.37-9.69-10.37-2.89,0-6,1.07-9.58,4.59l-2.89-3.52a16.7,16.7,0,0,1,12.3-5.44C400.12,27.44,406.24,33.56,406.24,42.18ZM401.42,52V46.77c-1.25-.06-2.49-.06-3.63-.06-9.8,0-14.33,1.59-14.33,5.56,0,3.34,3.17,5.1,7,5.1A13.72,13.72,0,0,0,401.42,52Z"/>
	<path
		d="M439.22,60.65V58.22a13.64,13.64,0,0,1-9.13,3.23c-8.95,0-14.9-7.09-14.9-17.86,0-10.2,5.27-16.15,14.34-16.15a10.82,10.82,0,0,1,9.69,5V16.11l4.81.34V56.91a13.51,13.51,0,0,0,.34,3.74Zm0-8.78V38.1c-2.1-4.08-5.61-6.41-9.69-6.41-5.78,0-9.53,4.71-9.53,11.9,0,7.77,4.2,13.27,10.09,13.27C434.91,56.86,437.74,55.33,439.22,51.87Z"/>
	<path
		d="M476.62,60.65V58.22a13.64,13.64,0,0,1-9.13,3.23c-8.95,0-14.9-7.09-14.9-17.86,0-10.2,5.27-16.15,14.33-16.15a10.82,10.82,0,0,1,9.7,5V16.11l4.81.34V56.91a13.51,13.51,0,0,0,.34,3.74Zm0-8.78V38.1c-2.1-4.08-5.62-6.41-9.7-6.41-5.78,0-9.52,4.71-9.52,11.9,0,7.77,4.2,13.27,10.09,13.27C472.31,56.86,475.14,55.33,476.62,51.87Z"/>
	<path
		d="M490,44.16c0-10.31,5.72-16.72,14.84-16.72s15,6.58,15,16.72c0,10.43-6,17.34-15,17.34S490,54.7,490,44.16Zm24.31,0c0-8.27-3.51-12.81-9.47-12.75-5.72.06-9.18,4.65-9.18,12.75s3.46,13.21,9.18,13.21C510.79,57.37,514.3,52.49,514.3,44.16Z"/>
	<path
		d="M556.06,60.65h-5.5v-18c0-5.72-3.28-10.37-9-10.37-3.91,0-5.95,2.21-7.36,5V60.65h-4.82V28.35h6.06a8,8,0,0,0-1.24,3.8v0c1.53-2.84,5.78-4.71,9.74-4.71,8.39,0,11.79,8.33,11.79,16.38V56.91A13.51,13.51,0,0,0,556.06,60.65Z"/>
	<path d="M568.64,45.92V41.38H590.8v4.54Z"/>
	<path
		d="M631,28.35a13.51,13.51,0,0,0-.34,3.74V60.65c0,6.18-5.32,10.2-13.54,10.2-6,0-11.62-2.09-14-5.21L606,62.13c2.44,2.83,6.35,4.36,11.28,4.36,5.67,0,8.56-2,8.56-5.84v-6.8a16,16,0,0,1-9.7,3.69c-8.72,0-14.79-6.35-14.79-15.48,0-8.89,5.78-14.62,14.79-14.62a11,11,0,0,1,9.7,4.88v-4ZM625.82,47.5V38c-2.1-4.08-5.61-6.4-9.7-6.4A10.16,10.16,0,0,0,606,42.06c0,6.07,4.47,10.88,10.08,10.88A10.68,10.68,0,0,0,625.82,47.5Z"/>
	<path
		d="M654.88,38.15V56.69h9.58v.22a13.51,13.51,0,0,0,.34,3.74H640.21v-4h10V32.32l-6.63-.4V28.35h11.9a12.28,12.28,0,0,0-.91,3.8c2.27-4.31,7.37-4.71,9.86-4.71,1.25,0,2.5.12,6.18,1.53l-3,4.71C662.08,30.67,656,33.28,654.88,38.15Z"/>
	<path
		d="M704.52,60.65H679.93v-4h9.75V32.32l-6.63-.4V28.35h11.27l-.05,28.34h9.91v.22A13.51,13.51,0,0,0,704.52,60.65ZM687.86,19.06a3.22,3.22,0,0,1,3.57-3.52A3.18,3.18,0,0,1,695,19.06c0,2.32-1.25,3.57-3.52,3.57A3.2,3.2,0,0,1,687.86,19.06Z"/>
	<path
		d="M738.41,60.65V58.22a13.61,13.61,0,0,1-9.12,3.23c-9,0-14.91-7.09-14.91-17.86,0-10.2,5.27-16.15,14.34-16.15a10.81,10.81,0,0,1,9.69,5V16.11l4.82.34V56.91a13.51,13.51,0,0,0,.34,3.74Zm0-8.78V38.1c-2.1-4.08-5.61-6.41-9.69-6.41-5.78,0-9.52,4.71-9.52,11.9,0,7.77,4.19,13.27,10.09,13.27C734.1,56.86,736.94,55.33,738.41,51.87Z"/>
	<g style="opacity:0.50">
		<rect x="5.67" width="176.34" height="83.27" style="fill:red;opacity:0.3"/>
		<rect x="191.76" width="174.67" height="83.27" style="fill:red;opacity:0.3"/>
		<rect x="378.49" width="177.62" height="83.27" style="fill:red;opacity:0.3"/>
		<rect x="568.61" width="175.11" height="83.27" style="fill:red;opacity:0.3"/>
	</g>
</svg>
